#Comment line ignore any data following # character 
#Hierarchical Translation and Rotation (.htr) file 
[Header]	
#Header keywords are followed by a single value 
FileType HTR		#Single word string
DataType HTRS		#Translation followed by rotation and scale data
FileVersion 1		#integer
NumSegments 84		#integer
NumFrames 2		#integer
DataFrameRate 30		#integer, data frame rate in this file
EulerRotationOrder ZYX
CalibrationUnits mm
RotationUnits Degrees
GlobalAxisofGravity Y
BoneLengthAxis Y
ScaleFactor 1.00
[SegmentNames&Hierarchy]
#CHILD	PARENT
MASTER GLOBAL
root MASTER
chest root
L_mid_tent01 root
R_mid_tent01 root
spine01 root
Bip01_Neck chest
L_humerus chest
R_humerus chest
weapon_bone chest
Bip01_Head Bip01_Neck
eye_left_bone Bip01_Head
eye_right_bone Bip01_Head
L_forearm L_humerus
L_front_hand L_forearm
L_weapon_bone L_forearm
L_front_hand01_01 L_front_hand
L_front_hand02_01 L_front_hand
L_front_hand03_01 L_front_hand
L_front_hand01_02 L_front_hand01_01
L_front_hand02_02 L_front_hand02_01
L_front_hand03_02 L_front_hand03_01
R_forearm R_humerus
R_front_hand R_forearm
R_weapon_bone R_forearm
R_front_hand01_01 R_front_hand
R_front_hand02_01 R_front_hand
R_front_hand03_01 R_front_hand
R_front_hand01_02 R_front_hand01_01
R_front_hand02_02 R_front_hand02_01
R_front_hand03_02 R_front_hand03_01
null_rope01_connect L_mid_tent01
Rope1_Seg01 null_rope01_connect
Rope1_Seg02 Rope1_Seg01
Rope1_Seg03 Rope1_Seg02
Rope1_Seg04 Rope1_Seg03
Rope1_Seg05 Rope1_Seg04
Rope1_Seg06 Rope1_Seg05
Rope1_Seg07 Rope1_Seg06
Rope1_Seg09 Rope1_Seg07
L_mid_hand01 Rope1_Seg09
L_mid_hand02 Rope1_Seg09
L_mid_hand03 Rope1_Seg09
null_rope02_connect R_mid_tent01
Rope2_Seg01 null_rope02_connect
Rope2_Seg02 Rope2_Seg01
Rope2_Seg03 Rope2_Seg02
Rope2_Seg04 Rope2_Seg03
Rope2_Seg05 Rope2_Seg04
Rope2_Seg06 Rope2_Seg05
Rope2_Seg07 Rope2_Seg06
Rope2_Seg09 Rope2_Seg07
R_mid_hand01 Rope2_Seg09
R_mid_hand02 Rope2_Seg09
R_mid_hand03 Rope2_Seg09
spine02 spine01
spine03 spine02
pelvis spine03
null_rope03_connect pelvis
null_rope04_connect pelvis
Rope3_Seg01 null_rope03_connect
Rope3_Seg02 Rope3_Seg01
Rope3_Seg03 Rope3_Seg02
Rope3_Seg04 Rope3_Seg03
Rope3_Seg05 Rope3_Seg04
Rope3_Seg06 Rope3_Seg05
Rope3_Seg07 Rope3_Seg06
Rope3_Seg08 Rope3_Seg07
Rope3_Seg09 Rope3_Seg08
R_rear_hand01 Rope3_Seg09
R_rear_hand02 Rope3_Seg09
R_rear_hand03 Rope3_Seg09
Rope4_Seg01 null_rope04_connect
Rope4_Seg02 Rope4_Seg01
Rope4_Seg03 Rope4_Seg02
Rope4_Seg04 Rope4_Seg03
Rope4_Seg05 Rope4_Seg04
Rope4_Seg06 Rope4_Seg05
Rope4_Seg07 Rope4_Seg06
Rope4_Seg08 Rope4_Seg07
Rope4_Seg09 Rope4_Seg08
L_rear_hand01 Rope4_Seg09
L_rear_hand02 Rope4_Seg09
L_rear_hand03 Rope4_Seg09
[BasePosition]
#SegmentName Tx, Ty, Tz, Rx, Ry, Rz, BoneLength
MASTER 0.000000 0.000000 0.000000 -90.000000 0.000000 0.000000 10.000000 
root 0.000000 0.000000 0.000000 0.000000 0.000000 0.000000 10.000000 
chest 0.000000 0.000000 0.000000 0.000000 0.000000 0.000000 10.000000 
L_mid_tent01 0.000000 0.000000 0.000000 0.000000 0.000000 0.000000 10.000000 
R_mid_tent01 0.000000 0.000000 0.000000 0.000000 0.000000 0.000000 10.000000 
spine01 0.000000 0.000000 0.000000 0.000000 0.000000 0.000000 10.000000 
Bip01_Neck 0.000000 0.000000 0.000000 0.000000 0.000000 0.000000 10.000000 
L_humerus 0.000000 0.000000 0.000000 0.000000 0.000000 0.000000 10.000000 
R_humerus 0.000000 0.000000 0.000000 0.000000 0.000000 0.000000 10.000000 
weapon_bone 0.000000 0.000000 0.000000 0.000000 0.000000 0.000000 10.000000 
Bip01_Head 0.000000 0.000000 0.000000 0.000000 0.000000 0.000000 10.000000 
eye_left_bone 0.000000 0.000000 0.000000 0.000000 0.000000 0.000000 10.000000 
eye_right_bone 0.000000 0.000000 0.000000 0.000000 0.000000 0.000000 10.000000 
L_forearm 0.000000 0.000000 0.000000 0.000000 0.000000 0.000000 10.000000 
L_front_hand 0.000000 0.000000 0.000000 0.000000 0.000000 0.000000 10.000000 
L_weapon_bone 0.000000 0.000000 0.000000 0.000000 0.000000 0.000000 10.000000 
L_front_hand01_01 0.000000 0.000000 0.000000 0.000000 0.000000 0.000000 10.000000 
L_front_hand02_01 0.000000 0.000000 0.000000 0.000000 0.000000 0.000000 10.000000 
L_front_hand03_01 0.000000 0.000000 0.000000 0.000000 0.000000 0.000000 10.000000 
L_front_hand01_02 0.000000 0.000000 0.000000 0.000000 0.000000 0.000000 10.000000 
L_front_hand02_02 0.000000 0.000000 0.000000 0.000000 0.000000 0.000000 10.000000 
L_front_hand03_02 0.000000 0.000000 0.000000 0.000000 0.000000 0.000000 10.000000 
R_forearm 0.000000 0.000000 0.000000 0.000000 0.000000 0.000000 10.000000 
R_front_hand 0.000000 0.000000 0.000000 0.000000 0.000000 0.000000 10.000000 
R_weapon_bone 0.000000 0.000000 0.000000 0.000000 0.000000 0.000000 10.000000 
R_front_hand01_01 0.000000 0.000000 0.000000 0.000000 0.000000 0.000000 10.000000 
R_front_hand02_01 0.000000 0.000000 0.000000 0.000000 0.000000 0.000000 10.000000 
R_front_hand03_01 0.000000 0.000000 0.000000 0.000000 0.000000 0.000000 10.000000 
R_front_hand01_02 0.000000 0.000000 0.000000 0.000000 0.000000 0.000000 10.000000 
R_front_hand02_02 0.000000 0.000000 0.000000 0.000000 0.000000 0.000000 10.000000 
R_front_hand03_02 0.000000 0.000000 0.000000 0.000000 0.000000 0.000000 10.000000 
null_rope01_connect 0.000000 0.000000 0.000000 0.000000 0.000000 0.000000 10.000000 
Rope1_Seg01 0.000000 0.000000 0.000000 0.000000 0.000000 0.000000 10.000000 
Rope1_Seg02 0.000000 0.000000 0.000000 0.000000 0.000000 0.000000 10.000000 
Rope1_Seg03 0.000000 0.000000 0.000000 0.000000 0.000000 0.000000 10.000000 
Rope1_Seg04 0.000000 0.000000 0.000000 0.000000 0.000000 0.000000 10.000000 
Rope1_Seg05 0.000000 0.000000 0.000000 0.000000 0.000000 0.000000 10.000000 
Rope1_Seg06 0.000000 0.000000 0.000000 0.000000 0.000000 0.000000 10.000000 
Rope1_Seg07 0.000000 0.000000 0.000000 0.000000 0.000000 0.000000 10.000000 
Rope1_Seg09 0.000000 0.000000 0.000000 0.000000 0.000000 0.000000 10.000000 
L_mid_hand01 0.000000 0.000000 0.000000 0.000000 0.000000 0.000000 10.000000 
L_mid_hand02 0.000000 0.000000 0.000000 0.000000 0.000000 0.000000 10.000000 
L_mid_hand03 0.000000 0.000000 0.000000 0.000000 0.000000 0.000000 10.000000 
null_rope02_connect 0.000000 0.000000 0.000000 0.000000 0.000000 0.000000 10.000000 
Rope2_Seg01 0.000000 0.000000 0.000000 0.000000 0.000000 0.000000 10.000000 
Rope2_Seg02 0.000000 0.000000 0.000000 0.000000 0.000000 0.000000 10.000000 
Rope2_Seg03 0.000000 0.000000 0.000000 0.000000 0.000000 0.000000 10.000000 
Rope2_Seg04 0.000000 0.000000 0.000000 0.000000 0.000000 0.000000 10.000000 
Rope2_Seg05 0.000000 0.000000 0.000000 0.000000 0.000000 0.000000 10.000000 
Rope2_Seg06 0.000000 0.000000 0.000000 0.000000 0.000000 0.000000 10.000000 
Rope2_Seg07 0.000000 0.000000 0.000000 0.000000 0.000000 0.000000 10.000000 
Rope2_Seg09 0.000000 0.000000 0.000000 0.000000 0.000000 0.000000 10.000000 
R_mid_hand01 0.000000 0.000000 0.000000 0.000000 0.000000 0.000000 10.000000 
R_mid_hand02 0.000000 0.000000 0.000000 0.000000 0.000000 0.000000 10.000000 
R_mid_hand03 0.000000 0.000000 0.000000 0.000000 0.000000 0.000000 10.000000 
spine02 0.000000 0.000000 0.000000 0.000000 0.000000 0.000000 10.000000 
spine03 0.000000 0.000000 0.000000 0.000000 0.000000 0.000000 10.000000 
pelvis 0.000000 0.000000 0.000000 0.000000 0.000000 0.000000 10.000000 
null_rope03_connect 0.000000 0.000000 0.000000 0.000000 0.000000 0.000000 10.000000 
null_rope04_connect 0.000000 0.000000 0.000000 0.000000 0.000000 0.000000 10.000000 
Rope3_Seg01 0.000000 0.000000 0.000000 0.000000 0.000000 0.000000 10.000000 
Rope3_Seg02 0.000000 0.000000 0.000000 0.000000 0.000000 0.000000 10.000000 
Rope3_Seg03 0.000000 0.000000 0.000000 0.000000 0.000000 0.000000 10.000000 
Rope3_Seg04 0.000000 0.000000 0.000000 0.000000 0.000000 0.000000 10.000000 
Rope3_Seg05 0.000000 0.000000 0.000000 0.000000 0.000000 0.000000 10.000000 
Rope3_Seg06 0.000000 0.000000 0.000000 0.000000 0.000000 0.000000 10.000000 
Rope3_Seg07 0.000000 0.000000 0.000000 0.000000 0.000000 0.000000 10.000000 
Rope3_Seg08 0.000000 0.000000 0.000000 0.000000 0.000000 0.000000 10.000000 
Rope3_Seg09 0.000000 0.000000 0.000000 0.000000 0.000000 0.000000 10.000000 
R_rear_hand01 0.000000 0.000000 0.000000 0.000000 0.000000 0.000000 10.000000 
R_rear_hand02 0.000000 0.000000 0.000000 0.000000 0.000000 0.000000 10.000000 
R_rear_hand03 0.000000 0.000000 0.000000 0.000000 0.000000 0.000000 10.000000 
Rope4_Seg01 0.000000 0.000000 0.000000 0.000000 0.000000 0.000000 10.000000 
Rope4_Seg02 0.000000 0.000000 0.000000 0.000000 0.000000 0.000000 10.000000 
Rope4_Seg03 0.000000 0.000000 0.000000 0.000000 0.000000 0.000000 10.000000 
Rope4_Seg04 0.000000 0.000000 0.000000 0.000000 0.000000 0.000000 10.000000 
Rope4_Seg05 0.000000 0.000000 0.000000 0.000000 0.000000 0.000000 10.000000 
Rope4_Seg06 0.000000 0.000000 0.000000 0.000000 0.000000 0.000000 10.000000 
Rope4_Seg07 0.000000 0.000000 0.000000 0.000000 0.000000 0.000000 10.000000 
Rope4_Seg08 0.000000 0.000000 0.000000 0.000000 0.000000 0.000000 10.000000 
Rope4_Seg09 0.000000 0.000000 0.000000 0.000000 0.000000 0.000000 10.000000 
L_rear_hand01 0.000000 0.000000 0.000000 0.000000 0.000000 0.000000 10.000000 
L_rear_hand02 0.000000 0.000000 0.000000 0.000000 0.000000 0.000000 10.000000 
L_rear_hand03 0.000000 0.000000 0.000000 0.000000 0.000000 0.000000 10.000000 
#Beginning of Data. Separated by tabs
#Fr	Tx	Ty	Tz	Rx	Ry	Rz	SF
[MASTER]
5 0.000000 0.000000 0.000000 0.001660 0.001660 0.001660 0.000000
6 0.000000 0.000000 0.000000 0.001660 0.001660 0.001660 0.000000
[root]
5 -1.018947 -61.074520 1654.975098 -98.586929 -18.074390 -63.666420 1656.101929
6 2.166379 -87.692688 1743.478027 -101.468361 -20.755898 -60.489571 1745.683350
[chest]
5 -84.512650 -34.090519 0.000000 -2.473638 2.380060 170.545273 91.129311
6 -84.512650 -34.090519 0.000000 -2.560475 3.053872 171.559372 91.129311
[L_mid_tent01]
5 27.299093 22.179394 -249.918640 -42.555573 22.765991 -2.813675 252.381653
6 27.299093 22.179388 -249.918640 -49.434994 25.142984 -6.668938 252.381653
[R_mid_tent01]
5 23.228794 24.509907 226.238495 164.289551 -50.912342 74.166389 228.744751
6 23.228794 24.509907 226.238495 144.319489 -53.022800 100.622887 228.744751
[spine01]
5 -0.361383 -0.195265 0.000000 0.001943 0.001317 21.729502 0.410763
6 -0.361383 -0.195265 0.000000 0.001942 0.001319 21.648922 0.410763
[Bip01_Neck]
5 165.484543 71.581718 0.000119 175.896118 1.177290 24.871183 180.302734
6 165.484543 71.581718 0.000119 175.896118 1.177290 24.871183 180.302734
[L_humerus]
5 -13.983130 -135.272980 -120.471481 20.192286 75.743782 113.063660 181.680161
6 -13.983130 -135.272980 -120.471481 43.602993 79.616959 136.976837 181.680161
[R_humerus]
5 -13.983309 -135.273102 125.287651 84.145737 -59.844921 27.116400 184.909012
6 -13.983309 -135.273102 125.287651 99.476006 -56.540565 16.261482 184.909012
[weapon_bone]
5 235.964890 -300.705902 0.000000 0.000000 -89.951546 -128.212341 382.234833
6 235.964890 -300.705902 0.000000 0.000000 -89.951546 -128.212341 382.234833
[Bip01_Head]
5 214.922592 136.058487 7.309588 -13.205710 1.078250 -59.413235 254.474075
6 218.270142 131.664108 6.798361 -19.480436 0.918454 -57.996468 254.997086
[eye_left_bone]
5 29.323833 157.328384 -75.171494 -104.218590 -85.597984 4.718000 176.813065
6 29.999083 157.727341 -75.301651 -104.218590 -85.597984 4.718000 177.336395
[eye_right_bone]
5 39.909515 158.241028 53.507660 75.788536 -85.594551 4.713911 171.744186
6 40.573044 158.578110 53.396381 75.788536 -85.594551 4.713911 172.175385
[L_forearm]
5 322.776093 0.000000 -0.000119 0.000382 -0.002316 -108.709480 322.776093
6 322.776093 0.000000 -0.000119 0.000372 -0.002318 -108.234085 322.776093
[L_front_hand]
5 241.149185 -0.042021 -3.300071 -178.744904 -1.891254 -25.080210 241.171753
6 241.149185 -0.042021 -3.300071 -178.767899 -1.906625 -24.356365 241.171753
[L_weapon_bone]
5 156.183838 0.000000 0.000000 0.001424 0.001866 -15.271287 156.183838
6 156.183838 0.000000 0.000000 0.001305 0.001951 -22.456753 156.183838
[L_front_hand01_01]
5 86.095154 20.947098 -0.655860 -0.359460 -0.482594 74.618774 88.609184
6 86.095154 20.947098 -0.655860 -0.357810 -0.483818 74.227531 88.609184
[L_front_hand02_01]
5 86.935165 -11.437475 24.513514 153.221573 -59.543880 -59.999054 91.046425
6 86.935165 -11.437475 24.513514 152.633667 -59.365772 -59.317463 91.046425
[L_front_hand03_01]
5 86.637497 -14.123976 -20.424902 -152.825302 57.775230 -61.415504 90.126129
6 86.637497 -14.123976 -20.424902 -152.275314 57.596882 -60.768417 90.126129
[L_front_hand01_02]
5 71.020905 -0.000179 0.000030 0.000334 -0.002323 -106.379684 71.020905
6 71.020905 -0.000179 0.000030 0.000334 -0.002323 -106.379684 71.020905
[L_front_hand02_02]
5 71.020927 -0.000119 0.000060 0.000334 -0.002323 -106.379684 71.020927
6 71.020927 -0.000119 0.000060 0.000334 -0.002323 -106.379684 71.020927
[L_front_hand03_02]
5 71.020905 -0.000060 0.000060 0.000334 -0.002323 -106.379684 71.020905
6 71.020905 -0.000060 0.000060 0.000334 -0.002323 -106.379684 71.020905
[R_forearm]
5 322.776428 -0.000060 0.000030 0.207914 -0.033849 -81.658417 322.776428
6 322.776428 -0.000060 0.000030 0.203185 -0.061700 -73.892578 322.776428
[R_front_hand]
5 238.847015 -0.006795 2.210259 -2.635298 -10.645461 -26.312506 238.857239
6 238.847015 -0.006795 2.210259 -2.635298 -10.645461 -26.312506 238.857239
[R_weapon_bone]
5 155.664093 0.002503 -0.000030 0.003487 0.001180 -90.988930 155.664078
6 155.664093 0.002503 -0.000030 0.003487 0.001180 -90.988930 155.664078
[R_front_hand01_01]
5 87.624611 14.231146 22.918642 -137.089966 -51.842815 40.680946 91.683487
6 87.624611 14.231146 22.918642 -133.999344 -49.348488 36.684383 91.683487
[R_front_hand02_01]
5 89.356956 14.367283 -19.491137 137.994446 50.301620 43.416576 92.579636
6 89.356956 14.367283 -19.491137 135.015518 47.853233 39.477383 92.579636
[R_front_hand03_01]
5 87.286232 -22.307278 -0.143439 0.051657 -0.450829 -61.546795 90.091743
6 87.286232 -22.307278 -0.143439 0.026605 -0.452683 -57.992813 90.091743
[R_front_hand01_02]
5 71.020905 0.000060 0.000119 0.002341 -0.000174 98.496246 71.020905
6 71.020905 0.000060 0.000119 0.002342 -0.000164 98.026733 71.020905
[R_front_hand02_02]
5 71.020844 -0.000030 -0.000119 0.002341 -0.000174 98.496246 71.020836
6 71.020844 -0.000030 -0.000119 0.002342 -0.000164 98.026733 71.020836
[R_front_hand03_02]
5 71.020905 0.000000 0.000030 0.002341 -0.000174 98.494087 71.020905
6 71.020905 0.000000 0.000030 0.002342 -0.000164 98.025658 71.020905
[null_rope01_connect]
5 328.732483 0.000000 -0.000238 -159.904221 -48.719265 -86.743774 328.732483
6 328.732483 0.000000 -0.000238 -152.407684 -43.486336 -87.050659 328.732483
[Rope1_Seg01]
5 -0.000036 0.000033 0.000134 52.078075 -21.353569 -123.087021 0.000142
6 -0.000035 0.000032 0.000129 54.948528 -26.162077 -125.776886 0.000137
[Rope1_Seg02]
5 139.999863 -0.000179 0.000000 -2.569156 1.972398 1.832675 139.999863
6 139.999863 -0.000179 0.000000 -1.366571 0.793707 1.708574 139.999863
[Rope1_Seg03]
5 139.999924 0.000060 -0.000060 -4.092592 3.069411 3.130097 139.999924
6 139.999924 0.000060 -0.000060 -2.220844 1.296618 2.984606 139.999924
[Rope1_Seg04]
5 139.999924 -0.000060 -0.000119 -6.885015 1.029935 12.650119 139.999924
6 139.999924 -0.000060 -0.000119 -4.596340 -2.166536 14.004147 139.999924
[Rope1_Seg05]
5 139.999832 0.000119 -0.000060 -23.549128 29.586554 0.679900 139.999832
6 139.999832 0.000119 -0.000060 -27.603518 40.940971 -2.182242 139.999832
[Rope1_Seg06]
5 139.999954 0.000119 -0.000060 -26.392696 21.159933 2.415407 139.999954
6 139.999954 0.000119 -0.000060 -45.448872 35.408501 3.307626 139.999954
[Rope1_Seg07]
5 139.999985 0.000060 0.000000 -11.583206 5.818747 5.082573 139.999985
6 139.999985 0.000060 0.000000 -10.730002 4.387683 6.996469 139.999985
[Rope1_Seg09]
5 121.602913 0.000119 -0.000089 -89.525597 -1.358130 0.847749 121.602913
6 121.602913 0.000119 -0.000089 -88.969780 -1.362288 0.848146 121.602913
[L_mid_hand01]
5 103.859421 1.038730 8.195221 104.901352 -15.416413 -4.579111 104.187431
6 103.859421 1.038730 8.195221 104.564636 -9.635468 -3.022029 104.187431
[L_mid_hand02]
5 105.572853 -4.139662 -10.864139 -137.605331 15.125646 -15.357124 106.211075
6 105.572853 -4.139662 -10.864139 -136.586548 11.053603 -10.862152 106.211075
[L_mid_hand03]
5 104.641464 17.579376 -3.913581 -18.149921 4.858170 18.388916 106.179977
6 104.641464 17.579376 -3.913581 -18.538750 2.975616 12.703538 106.179977
[null_rope02_connect]
5 328.732849 0.000179 -0.000119 -113.700623 20.674314 33.775032 328.732849
6 328.732849 0.000179 -0.000119 -116.287361 13.066033 47.601051 328.732849
[Rope2_Seg01]
5 0.000095 0.000153 0.000010 9.535576 -48.058517 -28.164982 0.000180
6 0.000095 0.000153 0.000012 -4.855422 -42.129066 -14.529701 0.000180
[Rope2_Seg02]
5 139.999741 -0.000060 -0.000119 -17.815067 39.024689 0.180720 139.999756
6 139.999741 -0.000060 -0.000119 -11.985291 29.459476 2.557983 139.999756
[Rope2_Seg03]
5 140.000107 0.000030 0.000000 -39.703526 23.114510 8.608128 140.000107
6 140.000107 0.000030 0.000000 -32.591732 25.607203 7.911185 140.000107
[Rope2_Seg04]
5 139.999802 0.000000 -0.000060 -20.763262 4.503385 8.051069 139.999802
6 139.999802 0.000000 -0.000060 -25.208120 8.067081 9.679327 139.999802
[Rope2_Seg05]
5 139.999985 -0.000060 0.000119 -15.471526 1.913976 7.439804 139.999985
6 139.999985 -0.000060 0.000119 -17.488062 1.214978 10.343281 139.999985
[Rope2_Seg06]
5 139.999893 -0.000030 -0.000119 -19.812189 0.510511 13.388721 139.999893
6 139.999893 -0.000030 -0.000119 -18.149221 -4.842874 18.988317 139.999893
[Rope2_Seg07]
5 139.999893 0.000060 -0.000060 -13.387448 -4.906982 15.080575 139.999893
6 139.999893 0.000060 -0.000060 -9.260557 -10.047229 17.311314 139.999893
[Rope2_Seg09]
5 121.338966 0.000089 -0.000060 33.793236 -1.359788 -0.847141 121.338966
6 121.338966 0.000089 -0.000060 33.793236 -1.359788 -0.847141 121.338966
[R_mid_hand01]
5 104.680779 11.144459 -10.335981 -46.227741 12.210353 14.185644 105.778534
6 104.680779 11.144459 -10.335981 -46.983112 7.642263 9.805663 105.778534
[R_mid_hand02]
5 104.070427 2.443552 8.231699 75.154396 -14.505696 4.333755 104.424065
6 104.070427 2.443552 8.231699 75.479454 -8.429625 2.711335 104.424065
[R_mid_hand03]
5 106.028137 -11.221827 -5.996406 -165.269775 5.820217 -18.388157 106.788818
6 106.028137 -11.221827 -5.996406 -164.740158 4.196070 -12.295324 106.788818
[spine02]
5 129.756927 0.001550 0.000119 0.439555 -4.036186 -14.054001 129.756927
6 129.756927 0.001550 0.000119 0.449396 -4.035035 -14.193960 129.756927
[spine03]
5 78.614044 0.081615 -4.899018 2.047483 3.754983 18.785397 78.766579
6 78.614044 0.081611 -4.899018 2.075436 3.739893 19.217543 78.766579
[pelvis]
5 169.435242 0.051022 0.000000 -0.061515 -0.179870 14.755946 169.435257
6 169.435242 0.051022 0.000000 -0.061703 -0.179805 14.875631 169.435257
[null_rope03_connect]
5 -1.257226 -2.466202 137.391083 106.777115 -65.176086 -38.276745 137.418976
6 -1.257226 -2.466202 137.391083 111.135979 -62.706165 -39.405914 137.418976
[null_rope04_connect]
5 -1.259640 -2.480268 -137.844437 106.777115 -65.176086 -38.276745 137.872513
6 -1.259640 -2.480268 -137.844437 111.135979 -62.706165 -39.405914 137.872513
[Rope3_Seg01]
5 0.000000 0.000000 0.000000 -125.646553 40.954243 -63.876968 0.000000
6 0.000000 0.000000 0.000000 -124.672798 41.255558 -62.399460 0.000000
[Rope3_Seg02]
5 139.999924 -0.000119 0.000060 0.170387 -3.180653 -2.689860 139.999924
6 139.999924 -0.000119 0.000060 0.267735 -4.649694 -1.919911 139.999924
[Rope3_Seg03]
5 139.999924 -0.000119 0.000119 0.421166 -4.686354 -3.956432 139.999924
6 139.999924 -0.000119 0.000119 0.837689 -7.120750 -2.919920 139.999924
[Rope3_Seg04]
5 139.999924 0.000119 0.000000 2.791896 -12.740307 -7.647488 139.999924
6 139.999924 0.000119 0.000000 4.578207 -17.089735 -5.162252 139.999924
[Rope3_Seg05]
5 139.999924 -0.000238 0.000060 2.034415 -8.500955 -9.320635 139.999924
6 139.999924 -0.000238 0.000060 7.183253 -15.500186 -6.204949 139.999924
[Rope3_Seg06]
5 139.999893 -0.000119 -0.000060 -18.377798 29.543093 -10.564141 139.999893
6 139.999893 -0.000119 -0.000060 -51.501381 24.693548 -43.694969 139.999893
[Rope3_Seg07]
5 139.999771 0.000060 -0.000119 -8.278626 29.577686 -5.643925 139.999771
6 139.999771 0.000060 -0.000119 -43.565132 53.298244 -32.405560 139.999771
[Rope3_Seg08]
5 139.999985 -0.000060 0.000000 -0.348985 10.494242 -0.735631 139.999985
6 139.999985 -0.000060 0.000000 0.610142 -0.502616 -0.035639 139.999985
[Rope3_Seg09]
5 90.185997 -0.000179 -0.000060 82.363983 -1.360363 -0.846247 90.185997
6 90.185997 -0.000179 -0.000060 80.303505 -1.360006 -0.847528 90.185997
[R_rear_hand01]
5 103.366196 -6.073594 -10.757982 -157.559235 10.513234 -13.241582 104.101845
6 103.366196 -6.073594 -10.757982 -156.704285 8.345716 -8.027033 104.101845
[R_rear_hand02]
5 100.509819 12.039542 -7.992327 -37.862160 8.939227 14.323655 101.543350
6 100.509819 12.039542 -7.992327 -38.418526 5.491729 9.898495 101.543350
[R_rear_hand03]
5 101.539970 5.215704 5.435467 84.149246 -13.552140 5.237627 101.819031
6 101.539970 5.215704 5.435467 84.256439 -8.001242 4.666574 101.819031
[Rope4_Seg01]
5 -0.000018 -0.000067 -0.000153 46.557850 -9.104653 -100.477264 0.000168
6 -0.000018 -0.000064 -0.000153 45.990143 -17.692127 -97.581848 0.000167
[Rope4_Seg02]
5 139.999985 0.000060 0.000119 0.039637 4.751994 -1.709439 139.999985
6 139.999985 0.000060 0.000119 0.016104 3.440337 -2.155273 139.999985
[Rope4_Seg03]
5 139.999924 0.000000 -0.000238 0.474391 8.169164 -2.964590 139.999924
6 139.999924 0.000000 -0.000238 0.220586 6.128388 -3.870247 139.999924
[Rope4_Seg04]
5 139.999985 0.000000 0.000119 4.299443 24.298634 -6.661309 139.999985
6 139.999985 0.000000 0.000119 1.993897 19.657455 -10.850401 139.999985
[Rope4_Seg05]
5 139.999802 -0.000060 -0.000119 24.266171 39.505756 -17.862045 139.999802
6 139.999802 -0.000060 -0.000119 14.060882 45.236938 -36.282040 139.999802
[Rope4_Seg06]
5 139.999924 0.000000 0.000060 -17.380575 -40.609127 10.801327 139.999924
6 139.999924 0.000000 0.000060 -9.748533 -43.234699 6.626471 139.999924
[Rope4_Seg07]
5 139.999802 0.000000 0.000000 0.538890 -32.910187 1.219511 139.999802
6 139.999802 0.000000 0.000000 6.081703 -37.294559 2.338816 139.999802
[Rope4_Seg08]
5 139.999924 0.000000 0.000119 0.031055 -9.137724 -0.616034 139.999924
6 139.999924 0.000000 0.000119 2.664394 -10.385315 0.375445 139.999924
[Rope4_Seg09]
5 90.185791 0.000060 0.000060 -141.287506 2.225851 0.851937 90.185791
6 90.185791 0.000060 0.000060 -143.101837 2.228101 0.849436 90.185791
[L_rear_hand01]
5 101.696655 -8.392275 -7.654577 -38.132095 -7.472949 167.573868 102.329041
6 101.696655 -8.392275 -7.654577 -38.600975 -3.653869 172.414749 102.329041
[L_rear_hand02]
5 102.726799 -1.568258 5.773216 84.201385 11.185100 175.009262 102.900848
6 102.726799 -1.568258 5.773216 84.293938 5.067990 175.629288 102.900848
[L_rear_hand03]
5 104.552910 9.721220 -10.420293 -157.170425 -9.596274 -168.991470 105.519653
6 104.552910 9.721220 -10.420293 -156.337662 -7.166387 -174.701874 105.519653
